{
  "accessors": [
    {
      "bufferView": 2,
      "componentType": 5126,
      "count": 36,
      "max": [
        2.6932945251464844,
        1.0981125831604004,
        1.4433289766311646
      ],
      "min": [
        -0.8376842141151428,
        -1.0949833393096924,
        -1.17106294631958
      ],
      "type": "VEC3"
    },
    {
      "bufferView": 2,
      "byteOffset": 432,
      "componentType": 5126,
      "count": 36,
      "max": [
        0.8144460916519165,
        0.942429780960083,
        0.999791145324707
      ],
      "min": [
        -0.7274520397186279,
        -0.8412127494812012,
        -0.9973036050796509
      ],
      "type": "VEC3"
    },
    {
      "bufferView": 1,
      "componentType": 5126,
      "count": 36,
      "max": [
        1.0,
        1.0
      ],
      "min": [
        -8.940696716308594e-08,
        0.01000000536441803
      ],
      "type": "VEC2"
    },
    {
      "bufferView": 0,
      "componentType": 5125,
      "count": 60,
      "type": "SCALAR"
    },
    {
      "bufferView": 2,
      "byteOffset": 864,
      "componentType": 5126,
      "count": 36,
      "max": [
        2.6932945251464844,
        1.0981125831604004,
        1.4433289766311646
      ],
      "min": [
        -0.8376842141151428,
        -1.0949833393096924,
        -1.17106294631958
      ],
      "type": "VEC3"
    },
    {
      "bufferView": 2,
      "byteOffset": 1296,
      "componentType": 5126,
      "count": 36,
      "max": [
        0.8144461512565613,
        0.942429780960083,
        0.999791145324707
      ],
      "min": [
        -0.7274520993232727,
        -0.8412126898765564,
        -0.9973036050796509
      ],
      "type": "VEC3"
    },
    {
      "bufferView": 1,
      "byteOffset": 288,
      "componentType": 5126,
      "count": 36,
      "max": [
        1.0,
        1.0
      ],
      "min": [
        -8.940696716308594e-08,
        0.01000000536441803
      ],
      "type": "VEC2"
    },
    {
      "bufferView": 0,
      "byteOffset": 240,
      "componentType": 5125,
      "count": 60,
      "type": "SCALAR"
    },
    {
      "bufferView": 2,
      "byteOffset": 1728,
      "componentType": 5126,
      "count": 36,
      "max": [
        2.6932945251464844,
        1.0981125831604004,
        1.4433289766311646
      ],
      "min": [
        -0.8376842141151428,
        -1.0949833393096924,
        -1.17106294631958
      ],
      "type": "VEC3"
    },
    {
      "bufferView": 2,
      "byteOffset": 2160,
      "componentType": 5126,
      "count": 36,
      "max": [
        0.8144460916519165,
        0.942429780960083,
        0.999791145324707
      ],
      "min": [
        -0.7274520397186279,
        -0.8412127494812012,
        -0.9973036050796509
      ],
      "type": "VEC3"
    },
    {
      "bufferView": 1,
      "byteOffset": 576,
      "componentType": 5126,
      "count": 36,
      "max": [
        1.0,
        1.0
      ],
      "min": [
        -8.940696716308594e-08,
        0.01000000536441803
      ],
      "type": "VEC2"
    },
    {
      "bufferView": 0,
      "byteOffset": 480,
      "componentType": 5125,
      "count": 60,
      "type": "SCALAR"
    },
    {
      "bufferView": 2,
      "byteOffset": 2592,
      "componentType": 5126,
      "count": 36,
      "max": [
        2.6932945251464844,
        1.0981125831604004,
        1.4433289766311646
      ],
      "min": [
        -0.8376842141151428,
        -1.0949833393096924,
        -1.17106294631958
      ],
      "type": "VEC3"
    },
    {
      "bufferView": 2,
      "byteOffset": 3024,
      "componentType": 5126,
      "count": 36,
      "max": [
        0.8144461512565613,
        0.942429780960083,
        0.999791145324707
      ],
      "min": [
        -0.7274520993232727,
        -0.8412126898765564,
        -0.9973036050796509
      ],
      "type": "VEC3"
    },
    {
      "bufferView": 1,
      "byteOffset": 864,
      "componentType": 5126,
      "count": 36,
      "max": [
        1.0,
        1.0
      ],
      "min": [
        -8.940696716308594e-08,
        0.01000000536441803
      ],
      "type": "VEC2"
    },
    {
      "bufferView": 0,
      "byteOffset": 720,
      "componentType": 5125,
      "count": 60,
      "type": "SCALAR"
    },
    {
      "bufferView": 2,
      "byteOffset": 3456,
      "componentType": 5126,
      "count": 36,
      "max": [
        2.6932945251464844,
        1.0981125831604004,
        1.4433289766311646
      ],
      "min": [
        -0.8376842141151428,
        -1.0949833393096924,
        -1.17106294631958
      ],
      "type": "VEC3"
    },
    {
      "bufferView": 2,
      "byteOffset": 3888,
      "componentType": 5126,
      "count": 36,
      "max": [
        0.8144461512565613,
        0.942429780960083,
        0.999791145324707
      ],
      "min": [
        -0.7274520993232727,
        -0.8412126898765564,
        -0.9973036050796509
      ],
      "type": "VEC3"
    },
    {
      "bufferView": 1,
      "byteOffset": 1152,
      "componentType": 5126,
      "count": 36,
      "max": [
        1.0,
        1.0
      ],
      "min": [
        -8.940696716308594e-08,
        0.01000000536441803
      ],
      "type": "VEC2"
    },
    {
      "bufferView": 0,
      "byteOffset": 960,
      "componentType": 5125,
      "count": 60,
      "type": "SCALAR"
    },
    {
      "bufferView": 2,
      "byteOffset": 4320,
      "componentType": 5126,
      "count": 72,
      "max": [
        2.7132210731506348,
        1.0168417692184448,
        1.0
      ],
      "min": [
        -1.0,
        -1.0285500288009644,
        -1.0475608110427856
      ],
      "type": "VEC3"
    },
    {
      "bufferView": 2,
      "byteOffset": 5184,
      "componentType": 5126,
      "count": 72,
      "max": [
        0.9999831318855286,
        0.9999250769615173,
        1.0
      ],
      "min": [
        -0.9711910486221313,
        -0.9999251365661621,
        -1.0
      ],
      "type": "VEC3"
    },
    {
      "bufferView": 1,
      "byteOffset": 1440,
      "componentType": 5126,
      "count": 72,
      "max": [
        0.875,
        1.0
      ],
      "min": [
        0.125,
        0.0
      ],
      "type": "VEC2"
    },
    {
      "bufferView": 0,
      "byteOffset": 1200,
      "componentType": 5125,
      "count": 108,
      "type": "SCALAR"
    },
    {
      "bufferView": 2,
      "byteOffset": 6048,
      "componentType": 5126,
      "count": 72,
      "max": [
        2.7132210731506348,
        1.0168417692184448,
        1.0
      ],
      "min": [
        -1.0,
        -1.0285500288009644,
        -1.0475608110427856
      ],
      "type": "VEC3"
    },
    {
      "bufferView": 2,
      "byteOffset": 6912,
      "componentType": 5126,
      "count": 72,
      "max": [
        0.9999831318855286,
        0.9999250769615173,
        1.0
      ],
      "min": [
        -0.9711910486221313,
        -0.9999251365661621,
        -1.0
      ],
      "type": "VEC3"
    },
    {
      "bufferView": 1,
      "byteOffset": 2016,
      "componentType": 5126,
      "count": 72,
      "max": [
        0.875,
        1.0
      ],
      "min": [
        0.125,
        0.0
      ],
      "type": "VEC2"
    },
    {
      "bufferView": 0,
      "byteOffset": 1632,
      "componentType": 5125,
      "count": 108,
      "type": "SCALAR"
    }
  ],
  "asset": {
    "extras": {
      "author": "simonaskLDE (https://sketchfab.com/simonaskLDE)",
      "license": "CC-BY-4.0 (http://creativecommons.org/licenses/by/4.0/)",
      "source": "https://sketchfab.com/3d-models/low-poly-survival-tent-f3f5283fa07a47e798017bc3c055fe88",
      "title": "Low-poly Survival Tent"
    },
    "generator": "Sketchfab-12.13.0",
    "version": "2.0"
  },
  "bufferViews": [
    {
      "buffer": 0,
      "byteLength": 2064,
      "name": "floatBufferViews",
      "target": 34963
    },
    {
      "buffer": 0,
      "byteLength": 2592,
      "byteOffset": 2064,
      "byteStride": 8,
      "name": "floatBufferViews",
      "target": 34962
    },
    {
      "buffer": 0,
      "byteLength": 7776,
      "byteOffset": 4656,
      "byteStride": 12,
      "name": "floatBufferViews",
      "target": 34962
    }
  ],
  "buffers": [
    {
      "byteLength": 12432,
      "uri": "assets/models/low-poly_survival_tent/scene.bin"
    }
  ],
  "materials": [
    {
      "doubleSided": true,
      "name": "Stick_wood",
      "pbrMetallicRoughness": {
        "baseColorFactor": [
          0.12371,
          0.0665548,
          0.0155994,
          1.0
        ],
        "metallicFactor": 0.0,
        "roughnessFactor": 0.983223449288002
      }
    },
    {
      "doubleSided": true,
      "name": "TENT_MAT",
      "pbrMetallicRoughness": {
        "baseColorFactor": [
          0.137584,
          0.172512,
          0.0858794,
          1.0
        ],
        "metallicFactor": 0.0
      }
    }
  ],
  "meshes": [
    {
      "name": "F.L_Stick_wood_0",
      "primitives": [
        {
          "attributes": {
            "NORMAL": 1,
            "POSITION": 0,
            "TEXCOORD_0": 2
          },
          "indices": 3,
          "material": 0,
          "mode": 4
        }
      ]
    },
    {
      "name": "F.R_Stick_wood_0",
      "primitives": [
        {
          "attributes": {
            "NORMAL": 5,
            "POSITION": 4,
            "TEXCOORD_0": 6
          },
          "indices": 7,
          "material": 0,
          "mode": 4
        }
      ]
    },
    {
      "name": "B.L_Stick_wood_0",
      "primitives": [
        {
          "attributes": {
            "NORMAL": 9,
            "POSITION": 8,
            "TEXCOORD_0": 10
          },
          "indices": 11,
          "material": 0,
          "mode": 4
        }
      ]
    },
    {
      "name": "B.R_Stick_wood_0",
      "primitives": [
        {
          "attributes": {
            "NORMAL": 13,
            "POSITION": 12,
            "TEXCOORD_0": 14
          },
          "indices": 15,
          "material": 0,
          "mode": 4
        }
      ]
    },
    {
      "name": "T_Stick_wood_0",
      "primitives": [
        {
          "attributes": {
            "NORMAL": 17,
            "POSITION": 16,
            "TEXCOORD_0": 18
          },
          "indices": 19,
          "material": 0,
          "mode": 4
        }
      ]
    },
    {
      "name": "T.L_TENT_MAT_0",
      "primitives": [
        {
          "attributes": {
            "NORMAL": 21,
            "POSITION": 20,
            "TEXCOORD_0": 22
          },
          "indices": 23,
          "material": 1,
          "mode": 4
        }
      ]
    },
    {
      "name": "T.R_TENT_MAT_0",
      "primitives": [
        {
          "attributes": {
            "NORMAL": 25,
            "POSITION": 24,
            "TEXCOORD_0": 26
          },
          "indices": 27,
          "material": 1,
          "mode": 4
        }
      ]
    }
  ],
  "nodes": [
    {
      "children": [
        1
      ],
      "matrix": [
        1.0,
        0.0,
        0.0,
        0.0,
        0.0,
        2.220446049250313e-16,
        -1.0,
        0.0,
        0.0,
        1.0,
        2.220446049250313e-16,
        0.0,
        0.0,
        0.0,
        0.0,
        1.0
      ],
      "name": "Sketchfab_model"
    },
    {
      "children": [
        2
      ],
      "matrix": [
        0.009999999776482582,
        0.0,
        0.0,
        0.0,
        0.0,
        0.0,
        0.009999999776482582,
        0.0,
        0.0,
        -0.009999999776482582,
        0.0,
        0.0,
        0.0,
        0.0,
        0.0,
        1.0
      ],
      "name": "457ef18948c6428f8b4762be814e74a7.fbx"
    },
    {
      "children": [
        3,
        5,
        7,
        9,
        11,
        13,
        15
      ],
      "name": "RootNode"
    },
    {
      "children": [
        4
      ],
      "matrix": [
        16.540382398115064,
        -11.581698900049158,
        -1.729286903219291e-06,
        0.0,
        -5.421549714097879e-07,
        2.2406420477569514e-06,
        -20.192075729369986,
        0.0,
        151.56337628783498,
        216.45496252190776,
        1.9949769280503185e-05,
        0.0,
        -180.0,
        253.97665405273438,
        0.0,
        1.0
      ],
      "name": "F.L"
    },
    {
      "mesh": 0,
      "name": "F.L_Stick_wood_0"
    },
    {
      "children": [
        6
      ],
      "matrix": [
        -16.540381339649763,
        -11.581700411693468,
        4.76386527872653e-06,
        0.0,
        4.776723505754651e-06,
        1.4836767931285958e-06,
        20.192075729369495,
        0.0,
        -151.56339606989795,
        216.45494867035865,
        1.9949769280503185e-05,
        0.0,
        183.7738800048828,
        253.97665405273438,
        0.0,
        1.0
      ],
      "name": "F.R"
    },
    {
      "mesh": 1,
      "name": "F.R_Stick_wood_0"
    },
    {
      "children": [
        8
      ],
      "matrix": [
        16.540382398115064,
        -11.581698900049158,
        -1.729286903219291e-06,
        0.0,
        -5.421549714097879e-07,
        2.2406420477569514e-06,
        -20.192075729369986,
        0.0,
        151.56337628783498,
        216.45496252190776,
        1.9949769280503185e-05,
        0.0,
        -180.0,
        253.97665405273438,
        -780.0,
        1.0
      ],
      "name": "B.L"
    },
    {
      "mesh": 2,
      "name": "B.L_Stick_wood_0"
    },
    {
      "children": [
        10
      ],
      "matrix": [
        -16.540381339649763,
        -11.581700411693468,
        4.76386527872653e-06,
        0.0,
        4.776723505754651e-06,
        1.4836767931285958e-06,
        20.192075729369495,
        0.0,
        -151.56339606989795,
        216.45494867035865,
        1.9949769280503185e-05,
        0.0,
        183.7738800048828,
        253.97665405273438,
        -780.0,
        1.0
      ],
      "name": "B.R"
    },
    {
      "mesh": 3,
      "name": "B.R_Stick_wood_0"
    },
    {
      "children": [
        12
      ],
      "matrix": [
        4.88148325107067e-06,
        -25.0708938119636,
        1.4350784426591623,
        0.0,
        25.096717834470123,
        5.45108210085401e-06,
        9.863079458741135e-06,
        0.0,
        -0.00013211831971076752,
        18.652924924060148,
        325.86755270865297,
        0.0,
        4.265827178955078,
        516.0913696289063,
        -427.1714782714844,
        1.0
      ],
      "name": "T"
    },
    {
      "mesh": 4,
      "name": "T_Stick_wood_0"
    },
    {
      "children": [
        14
      ],
      "matrix": [
        5.191432094105459,
        -4.141301536796475,
        -1.8492475185275404e-07,
        0.0,
        1.0126555142211813e-05,
        3.055870723030263e-05,
        -400.06271362304557,
        0.0,
        178.8999786763842,
        224.26454163822999,
        2.1658791661558657e-05,
        0.0,
        -189.16514587402344,
        253.97665405273438,
        -394.556396484375,
        1.0
      ],
      "name": "T.L"
    },
    {
      "mesh": 5,
      "name": "T.L_TENT_MAT_0"
    },
    {
      "children": [
        16
      ],
      "matrix": [
        -5.191431715626948,
        -4.1413020112473,
        1.6643270617359896e-06,
        0.0,
        0.00012695898452561133,
        1.6312260178955294e-06,
        400.07418823240164,
        0.0,
        -178.8999991721644,
        224.26452528835904,
        5.585748040668723e-05,
        0.0,
        195.9696807861328,
        253.97665405273438,
        -394.556396484375,
        1.0
      ],
      "name": "T.R"
    },
    {
      "mesh": 6,
      "name": "T.R_TENT_MAT_0"
    }
  ],
  "scene": 0,
  "scenes": [
    {
      "name": "Sketchfab_Scene",
      "nodes": [
        0
      ]
    }
  ]
}
