{
  "accessors": [
    {
      "bufferView": 2,
      "componentType": 5126,
      "count": 2493,
      "max": [
        1.6082700490951538,
        0.86142998933792114,
        1.2070300579071045
      ],
      "min": [
        -1.6082700490951538,
        -3.9961299896240234,
        -1.4428999423980713
      ],
      "type": "VEC3"
    },
    {
      "bufferView": 2,
      "byteOffset": 29916,
      "componentType": 5126,
      "count": 2493,
      "max": [
        1,
        1,
        1
      ],
      "min": [
        -1,
        -1,
        -1
      ],
      "type": "VEC3"
    },
    {
      "bufferView": 3,
      "componentType": 5126,
      "count": 2493,
      "max": [
        1,
        1,
        0.99999266862869263,
        1
      ],
      "min": [
        -1,
        -1,
        -0.99998593330383301,
        -1
      ],
      "type": "VEC4"
    },
    {
      "bufferView": 1,
      "componentType": 5126,
      "count": 2493,
      "max": [
        0.97557002305984497,
        0.83427000045776367
      ],
      "min": [
        0.18753999471664429,
        0.44005998969078064
      ],
      "type": "VEC2"
    },
    {
      "bufferView": 0,
      "componentType": 5125,
      "count": 4989,
      "max": [
        2492
      ],
      "min": [
        0
      ],
      "type": "SCALAR"
    },
    {
      "bufferView": 2,
      "byteOffset": 59832,
      "componentType": 5126,
      "count": 362,
      "max": [
        1,
        3.7468500137329102,
        0.8958200216293335
      ],
      "min": [
        -1,
        -21.588790893554688,
        -1.5227099657058716
      ],
      "type": "VEC3"
    },
    {
      "bufferView": 2,
      "byteOffset": 64176,
      "componentType": 5126,
      "count": 362,
      "max": [
        1,
        0.92677807807922363,
        0.99999618530273438
      ],
      "min": [
        -1,
        -0.98452937602996826,
        -0.99999988079071045
      ],
      "type": "VEC3"
    },
    {
      "bufferView": 3,
      "byteOffset": 39888,
      "componentType": 5126,
      "count": 362,
      "max": [
        1,
        0.99999988079071045,
        0.96436196565628052,
        1
      ],
      "min": [
        -1,
        -0.99999701976776123,
        -0.70714700222015381,
        -1
      ],
      "type": "VEC4"
    },
    {
      "bufferView": 1,
      "byteOffset": 19944,
      "componentType": 5126,
      "count": 362,
      "max": [
        0.65125000476837158,
        0.55602002143859863
      ],
      "min": [
        0.37049001455307007,
        0.49276000261306763
      ],
      "type": "VEC2"
    },
    {
      "bufferView": 0,
      "byteOffset": 19956,
      "componentType": 5125,
      "count": 564,
      "max": [
        361
      ],
      "min": [
        0
      ],
      "type": "SCALAR"
    }
  ],
  "asset": {
    "extras": {
      "author": "Harold.Llanos (https://sketchfab.com/Harold.Llanos)",
      "license": "CC-BY-4.0 (http://creativecommons.org/licenses/by/4.0/)",
      "source": "https://sketchfab.com/3d-models/silla-de-playa-lowpoly-beach-chair-lowpoly-961f5362ffa241bc9523cd5609ac308f",
      "title": "Silla de playa lowpoly - beach chair lowpoly"
    },
    "generator": "Sketchfab-4.61.0",
    "version": "2.0"
  },
  "bufferViews": [
    {
      "buffer": 0,
      "byteLength": 22212,
      "byteOffset": 0,
      "name": "floatBufferViews",
      "target": 34963
    },
    {
      "buffer": 0,
      "byteLength": 22840,
      "byteOffset": 22212,
      "byteStride": 8,
      "name": "floatBufferViews",
      "target": 34962
    },
    {
      "buffer": 0,
      "byteLength": 68520,
      "byteOffset": 45052,
      "byteStride": 12,
      "name": "floatBufferViews",
      "target": 34962
    },
    {
      "buffer": 0,
      "byteLength": 45680,
      "byteOffset": 113572,
      "byteStride": 16,
      "name": "floatBufferViews",
      "target": 34962
    }
  ],
  "buffers": [
    {
      "byteLength": 159252,
      "uri": "assets/models/beach_chair/scene.bin"
    }
  ],
  "images": [
    {
      "uri": "assets/models/beach_chair/textures/Material_baseColor.png"
    },
    {
      "uri": "assets/models/beach_chair/textures/Root_baseColor.png"
    }
  ],
  "materials": [
    {
      "doubleSided": true,
      "emissiveFactor": [
        0,
        0,
        0
      ],
      "name": "Root",
      "pbrMetallicRoughness": {
        "baseColorFactor": [
          1,
          1,
          1,
          1
        ],
        "baseColorTexture": {
          "index": 1,
          "texCoord": 0
        },
        "metallicFactor": 0,
        "roughnessFactor": 0.59999999999999998
      }
    },
    {
      "doubleSided": true,
      "emissiveFactor": [
        0,
        0,
        0
      ],
      "name": "Material",
      "pbrMetallicRoughness": {
        "baseColorFactor": [
          1,
          1,
          1,
          1
        ],
        "baseColorTexture": {
          "index": 0,
          "texCoord": 0
        },
        "metallicFactor": 0,
        "roughnessFactor": 0.59999999999999998
      }
    }
  ],
  "meshes": [
    {
      "name": "MADERAS_0",
      "primitives": [
        {
          "attributes": {
            "NORMAL": 1,
            "POSITION": 0,
            "TANGENT": 2,
            "TEXCOORD_0": 3
          },
          "indices": 4,
          "material": 1,
          "mode": 4
        }
      ]
    },
    {
      "name": "TELA_0",
      "primitives": [
        {
          "attributes": {
            "NORMAL": 6,
            "POSITION": 5,
            "TANGENT": 7,
            "TEXCOORD_0": 8
          },
          "indices": 9,
          "material": 0,
          "mode": 4
        }
      ]
    }
  ],
  "nodes": [
    {
      "children": [
        1
      ],
      "name": "RootNode (gltf orientation matrix)",
      "rotation": [
        -0.70710678118654746,
        -0,
        -0,
        0.70710678118654757
      ]
    },
    {
      "children": [
        2
      ],
      "name": "RootNode (model correction matrix)"
    },
    {
      "children": [
        3,
        5,
        7
      ],
      "name": "Root"
    },
    {
      "children": [
        4
      ],
      "matrix": [
        -0.29086000000000006,
        0.95517000000000007,
        -0.05519000000000001,
        0,
        -0.77110000000000001,
        -0.19988000000000003,
        0.60452000000000006,
        0,
        0.56639000000000006,
        0.21839000000000003,
        0.7946700000000001,
        0,
        4.0762500000000008,
        1.00545,
        5.9038600000000008,
        1
      ],
      "name": "Lamp"
    },
    {
      "name": "Lamp"
    },
    {
      "children": [
        6
      ],
      "matrix": [
        1,
        0,
        0,
        0,
        0,
        1,
        0,
        0,
        0,
        0,
        1.8994199999999999,
        0,
        0,
        0,
        0,
        1
      ],
      "name": "MADERAS"
    },
    {
      "mesh": 0,
      "name": "MADERAS_0"
    },
    {
      "children": [
        8
      ],
      "matrix": [
        0.7986700000000001,
        0,
        0,
        0,
        0,
        0.054600000000000017,
        -0.032860000000000007,
        0,
        0,
        0.99627999999999994,
        1.6555299999999999,
        0,
        0,
        -0.30684000000000006,
        0.73812000000000011,
        1
      ],
      "name": "TELA"
    },
    {
      "mesh": 1,
      "name": "TELA_0"
    }
  ],
  "samplers": [
    {
      "magFilter": 9729,
      "minFilter": 9987,
      "wrapS": 10497,
      "wrapT": 10497
    }
  ],
  "scene": 0,
  "scenes": [
    {
      "name": "OSG_Scene",
      "nodes": [
        0
      ]
    }
  ],
  "textures": [
    {
      "sampler": 0,
      "source": 0
    },
    {
      "sampler": 0,
      "source": 1
    }
  ]
}

